# xmcd
#
# Track frame offsets: 
#        150
#        13275
#        29820
#        45453
#        64128
#        81722
#        94610
#        115954
#        131795
#        151197
#        163345
#
# Disc length: 2453 seconds
#
# Revision: 0
# Processed by: cddbd v1.5.2PL0 Copyright (c) Steve Scherf et al.
# Submitted via: ExactAudioCopy v0.99pb5
#
DISCID=9b09930b
DTITLE=Brian Byrne - Tailor Made
DYEAR=2007
DGENRE=Alternative County
TTITLE0=All I Need Is Love
TTITLE1=Tailor Made
TTITLE2=Beautiful You
TTITLE3=Mountain Feelin
TTITLE4=Easy Come
TTITLE5=Crazy
TTITLE6=Look For Me Now
TTITLE7=Home
TTITLE8=Colder Than The Lake
TTITLE9=The One, The Only (King Of Late Night)
TTITLE10=Love You More
EXTD=
EXTT0=
EXTT1=
EXTT2=
EXTT3=
EXTT4=
EXTT5=
EXTT6=
EXTT7=
EXTT8=
EXTT9=
EXTT10=
PLAYORDER=
